<svg xmlns="http://www.w3.org/2000/svg" width="1280" height="320" viewBox="0 0 1280 320" role="img" aria-label="Radares Anunciados: Antes del flash"><title>Radares Anunciados</title><rect width="1280" height="320" fill="#0a1630"/><rect x="246" y="180" width="16" height="140" fill="#9aa7bd"/><g transform="translate(254 150) scale(1.25)"><rect x="-60" y="-38" width="120" height="76" rx="10" fill="#e8edf5"/><rect x="-70" y="-46" width="140" height="14" rx="5" fill="#e8edf5"/><circle cx="18" cy="2" r="24" fill="#0a1630"/><circle cx="18" cy="2" r="11" fill="#e8edf5"/><circle cx="-36" cy="-14" r="6" fill="#0a1630"/></g><path d="M384.3 81.3A110 110 0 0 1 384.3 222.7" fill="none" stroke="#ffb300" stroke-width="12" stroke-linecap="round" opacity="1.00"/><path d="M410.3 59.4A144 144 0 0 1 410.3 244.6" fill="none" stroke="#ffb300" stroke-width="12" stroke-linecap="round" opacity="0.75"/><path d="M436.4 37.6A178 178 0 0 1 436.4 266.4" fill="none" stroke="#ffb300" stroke-width="12" stroke-linecap="round" opacity="0.50"/><path fill="#fff"  d="M534.3 120H547.5Q551.5 120 553.6 121.7Q556.3 123.6 556.4 128Q556.4 131.6 554.1 134.1Q551.7 136.7 547 136.8H534.3ZM525.9 168H534.3V144.3H545L556.5 168H566.5L553.6 143.4Q564.2 139.3 564.4 128Q564.1 120.3 558.8 116.1Q554.5 112.5 547.5 112.5H525.9ZM593.5 168H601.4V141Q601.4 133.8 596.9 130.8Q592.4 127.9 585 128Q576.1 127.8 571.6 133.8L577.9 138.5Q578.9 136.8 580.7 136.1Q582.4 135.5 585.4 135.5Q593.5 135.3 593.5 140.5V144.7H582.5Q576.1 144.8 572.9 148.1Q569.6 151.4 569.6 156.4Q569.6 161.6 573.4 165Q576.9 168.4 583.6 168.5Q587.6 168.5 589.9 167.5Q592.2 166.5 593.3 164.5H593.5ZM593.5 154.1Q593.5 158.6 591.6 159.8Q589.5 161.1 584.6 161Q580.6 161 578.9 159.4Q577.1 158 577.1 156Q577 151.4 583.9 151.2H593.5ZM635.4 163.8V168H643.3V112.5H635.4V132.7Q633.2 130.6 630.8 129.2Q628.2 128 625.1 128Q617.9 128.2 614.5 133.2Q612.9 135 612.4 138.1Q611.7 141.1 611.7 148.2Q611.7 155.2 612.4 158.2Q612.9 161.4 614.5 163.3Q616.3 165.6 619 167Q621.5 168.4 625.1 168.5Q631.4 168.3 635.4 163.8ZM627.6 135.9Q630.4 135.9 632 137Q633.6 138.1 634.3 139.9Q635 141.7 635.3 143.8Q635.4 145.9 635.4 148.2Q635.4 150.3 635.3 152.5Q635 154.7 634.3 156.5Q633.6 158.2 632 159.4Q630.4 160.5 627.6 160.5Q624.7 160.5 623.3 159.4Q621.6 158.3 620.9 156.6Q620.1 154.8 619.9 152.6Q619.7 150.4 619.7 148.2Q619.7 145.8 619.9 143.6Q620.1 141.5 620.9 139.7Q621.6 137.9 623.3 136.9Q624.7 135.9 627.6 135.9ZM673 168H680.9V141Q680.8 133.8 676.4 130.8Q671.9 127.9 664.5 128Q655.6 127.8 651.1 133.8L657.3 138.5Q658.4 136.8 660.2 136.1Q661.9 135.5 664.8 135.5Q673 135.3 673 140.5V144.7H661.9Q655.6 144.8 652.3 148.1Q649.1 151.4 649.1 156.4Q649.1 161.6 652.8 165Q656.4 168.4 663.1 168.5Q667.1 168.5 669.4 167.5Q671.7 166.5 672.8 164.5H673ZM673 154.1Q673 158.6 671.1 159.8Q669 161.1 664 161Q660.1 161 658.4 159.4Q656.6 158 656.6 156Q656.5 151.4 663.4 151.2H673ZM691.2 168H699.2V144.2Q699.2 139.9 701.7 137.9Q703.8 135.9 706.9 135.9Q709.6 135.9 712.1 137.9L717.9 131Q714.4 128 709.6 128Q703.2 128 699.3 132.7H699.2V128.5H691.2ZM752.2 151.2V144.7Q752.1 136.9 747.4 132.4Q742.7 128 735.9 128Q733.1 128 730.2 129Q727.3 130 724.9 132.4Q722.6 134.6 721.1 138.6Q719.6 142.5 719.6 148.3Q719.6 154.4 721.3 158.2Q722.9 162.2 725.4 164.4Q726.7 165.5 728.2 166.2Q729.6 167 731.1 167.5Q734 168.5 737.2 168.5Q745.4 168.5 751.4 162.1L745.7 157.1Q741.9 161 737 161Q732.9 161 730.3 158.5Q727.6 156 727.6 151.2ZM727.6 144.7Q727.8 140.1 730 137.7Q732.3 135.5 735.9 135.5Q739.5 135.5 741.8 137.7Q744.1 140.1 744.2 144.7ZM761.7 155.9 756.2 161.4Q763.9 168.5 773.6 168.5Q780.7 168.4 785.3 165.2Q789.9 162.1 790 156.3Q790 151.4 787.4 148.2Q784.7 144.9 778.5 144.5L771.9 144Q769 143.7 767.9 142.6Q766.6 141.6 766.7 140.2Q766.7 138.1 768.3 136.8Q769.8 135.5 773.5 135.5Q776.8 135.5 779.3 136.4Q781.8 137.5 784.1 139.1L789 133.4Q786.1 130.9 782.5 129.4Q780.6 128.7 778.4 128.3Q776.2 128 773.5 128Q767.2 128 763.1 131Q758.8 134.1 758.8 140.2Q758.8 145.2 762 148Q765.2 150.9 770.1 151.4L777.2 152Q779.4 152.1 780.7 153Q782 153.8 782 155.9Q782 158.3 779.8 159.7Q777.7 161 774.2 161Q766.6 161 761.7 155.9ZM827.2 148.1 835.3 123.9H835.4L843.5 148.1ZM850.2 168H859L838.9 112.5H831.8L811.6 168H820.5L824.8 155.6H845.9ZM864.3 168H872.2V144.5Q872.2 140.3 874.5 138.1Q876.7 135.9 880.1 135.9Q883.5 135.9 885.7 138.1Q887.9 140.3 887.9 144.5V168H895.9V141.7Q895.7 134.9 891.6 131.4Q887.6 128 882.7 128Q876.3 128 872.4 132.7H872.2V128.5H864.3ZM906.2 154.7Q906.2 161.4 910.5 164.9Q914.5 168.4 919.4 168.5Q925.7 168.5 929.7 163.8H929.8V168H937.8V128.5H929.8V152Q929.8 156 927.6 158.2Q925.4 160.5 922 160.5Q918.6 160.5 916.4 158.2Q914.1 156 914.1 152V128.5H906.2ZM948 168H956V144.5Q956 140.3 958.3 138.1Q960.5 135.9 963.9 135.9Q967.3 135.9 969.5 138.1Q971.7 140.3 971.7 144.5V168H979.7V141.7Q979.5 134.9 975.4 131.4Q971.4 128 966.4 128Q960.1 128 956.2 132.7H956V128.5H948ZM1013.2 156.4Q1010.2 160.4 1005.1 160.5Q995 160.7 994.9 148.3Q995 135.8 1005.1 135.9Q1010.2 136.1 1013.2 140.1L1019 134.9Q1016.5 131.7 1012.9 129.9Q1009.4 128 1004.8 128Q997.8 127.9 992.5 132.7Q987 137.5 986.9 148.3Q987 158.9 992.5 163.7Q997.8 168.5 1004.8 168.5Q1009.4 168.4 1012.9 166.4Q1016.5 164.6 1019 161.6ZM1024.8 168H1032.8V128.5H1024.8ZM1024.8 120.4H1032.8V112.5H1024.8ZM1064 168H1072V141Q1071.9 133.8 1067.4 130.8Q1063 127.9 1055.5 128Q1046.7 127.8 1042.2 133.8L1048.4 138.5Q1049.4 136.8 1051.2 136.1Q1052.9 135.5 1055.9 135.5Q1064.1 135.3 1064 140.5V144.7H1053Q1046.7 144.8 1043.4 148.1Q1040.1 151.4 1040.1 156.4Q1040.1 161.6 1043.9 165Q1047.5 168.4 1054.1 168.5Q1058.2 168.5 1060.4 167.5Q1062.8 166.5 1063.9 164.5H1064ZM1064 154.1Q1064 158.6 1062.2 159.8Q1060.1 161.1 1055.1 161Q1051.1 161 1049.4 159.4Q1047.6 158 1047.6 156Q1047.6 151.4 1054.5 151.2H1064ZM1105.9 163.8V168H1113.9V112.5H1105.9V132.7Q1103.7 130.6 1101.3 129.2Q1098.7 128 1095.7 128Q1088.4 128.2 1085.1 133.2Q1083.4 135 1082.9 138.1Q1082.3 141.1 1082.3 148.2Q1082.3 155.2 1082.9 158.2Q1083.4 161.4 1085.1 163.3Q1086.9 165.6 1089.5 167Q1092.1 168.4 1095.7 168.5Q1102 168.3 1105.9 163.8ZM1098.1 135.9Q1100.9 135.9 1102.6 137Q1104.2 138.1 1104.8 139.9Q1105.6 141.7 1105.8 143.8Q1105.9 145.9 1105.9 148.2Q1105.9 150.3 1105.8 152.5Q1105.6 154.7 1104.8 156.5Q1104.2 158.2 1102.6 159.4Q1100.9 160.5 1098.1 160.5Q1095.3 160.5 1093.8 159.4Q1092.2 158.3 1091.4 156.6Q1090.7 154.8 1090.5 152.6Q1090.2 150.4 1090.2 148.2Q1090.2 145.8 1090.5 143.6Q1090.7 141.5 1091.4 139.7Q1092.2 137.9 1093.8 136.9Q1095.3 135.9 1098.1 135.9ZM1120.8 148.2Q1120.8 154.4 1121.8 157.7Q1122.9 161 1125.1 163.4Q1126.7 165.3 1129.7 166.7Q1132.6 168.4 1137.1 168.5Q1141.8 168.4 1144.7 166.7Q1146.2 166.1 1147.2 165.1Q1148.3 164.3 1149.1 163.4Q1151.5 161 1152.5 157.7Q1153.4 154.4 1153.4 148.2Q1153.4 141.9 1152.5 138.6Q1151.5 135.3 1149.1 133.1Q1147.5 131.1 1144.7 129.5Q1141.8 128 1137.1 128Q1132.6 128 1129.7 129.5Q1126.7 131.1 1125.1 133.1Q1122.9 135.3 1121.8 138.6Q1120.8 141.9 1120.8 148.2ZM1145.4 148.3Q1145.4 152.3 1145.1 154.2Q1144.7 156.2 1143.5 157.6Q1142.6 158.8 1140.9 159.7Q1139.3 160.5 1137.1 160.5Q1135.1 160.5 1133.4 159.7Q1131.7 158.8 1130.7 157.6Q1129.7 156.2 1129.2 154.2Q1128.8 152.3 1128.8 148.2Q1128.8 144 1129.2 142.1Q1129.7 140.2 1130.7 138.8Q1131.7 137.5 1133.4 136.7Q1135.1 135.9 1137.1 135.9Q1139.3 135.9 1140.9 136.7Q1142.6 137.5 1143.5 138.8Q1144.7 140.2 1145.1 142.1Q1145.4 144 1145.4 148.3ZM1162.9 155.9 1157.4 161.4Q1165.1 168.5 1174.8 168.5Q1181.9 168.4 1186.5 165.2Q1191.1 162.1 1191.2 156.3Q1191.2 151.4 1188.6 148.2Q1185.9 144.9 1179.7 144.5L1173.1 144Q1170.2 143.7 1169.1 142.6Q1167.8 141.6 1167.9 140.2Q1167.9 138.1 1169.5 136.8Q1171 135.5 1174.7 135.5Q1178 135.5 1180.5 136.4Q1183 137.5 1185.3 139.1L1190.2 133.4Q1187.3 130.9 1183.7 129.4Q1181.8 128.7 1179.6 128.3Q1177.4 128 1174.7 128Q1168.4 128 1164.3 131Q1160 134.1 1160 140.2Q1160 145.2 1163.2 148Q1166.4 150.9 1171.3 151.4L1178.4 152Q1180.6 152.1 1181.9 153Q1183.2 153.8 1183.2 155.9Q1183.2 158.3 1181 159.7Q1178.8 161 1175.4 161Q1167.8 161 1162.9 155.9Z"/><rect x="522" y="196" width="64" height="8" rx="4" fill="#ffb300"/><path fill="#c8d3e6"  d="M530 241.8 534.2 229.4H534.2L538.4 241.8ZM541.8 252H546.4L536 223.5H532.4L522 252H526.6L528.8 245.6H539.6ZM549 252H553.1V239.9Q553.1 237.8 554.3 236.7Q555.4 235.6 557.2 235.6Q558.9 235.6 560 236.7Q561.2 237.8 561.2 239.9V252H565.2V238.5Q565.1 235 563.1 233.2Q561 231.5 558.5 231.5Q555.2 231.5 553.2 233.9H553.1V231.7H549ZM570.8 231.7H568.7V234.8H570.8V247Q570.8 249.4 572.2 250.7Q573.5 252 575.7 252H577.8V248.2H576.3Q574.8 248.2 574.8 246.6V234.8H577.8V231.7H574.8V225.6H570.8ZM597.4 243.4V240Q597.3 236 594.9 233.8Q592.5 231.5 589 231.5Q587.5 231.5 586.1 232Q584.6 232.5 583.3 233.7Q582.2 234.9 581.4 236.9Q580.6 238.9 580.6 241.9Q580.6 245 581.5 247Q582.3 249 583.6 250.2Q584.3 250.7 585 251.1Q585.8 251.5 586.5 251.8Q588 252.2 589.6 252.2Q593.8 252.3 596.9 249L594 246.4Q592 248.4 589.6 248.4Q587.4 248.4 586.1 247.1Q584.7 245.8 584.7 243.4ZM584.7 240Q584.8 237.7 586 236.5Q587.2 235.3 589 235.3Q590.8 235.3 592 236.5Q593.2 237.7 593.3 240ZM602.2 245.8 599.4 248.6Q603.3 252.2 608.3 252.2Q612 252.2 614.3 250.6Q616.7 249 616.7 246Q616.7 243.5 615.4 241.8Q614 240.2 610.8 239.9L607.5 239.7Q606 239.5 605.4 239Q604.8 238.4 604.8 237.8Q604.8 236.7 605.6 236Q606.4 235.3 608.3 235.3Q609.9 235.3 611.2 235.8Q612.5 236.4 613.7 237.2L616.2 234.2Q614.8 233 612.9 232.2Q611.9 231.8 610.8 231.6Q609.7 231.5 608.3 231.5Q605 231.5 602.9 233Q600.8 234.6 600.7 237.7Q600.8 240.3 602.4 241.8Q604 243.2 606.6 243.5L610.1 243.8Q611.3 243.8 612 244.3Q612.6 244.7 612.6 245.8Q612.6 247 611.5 247.7Q610.4 248.4 608.6 248.4Q604.7 248.4 602.2 245.8ZM642.5 249.9V252H646.6V223.5H642.5V233.9Q641.4 232.8 640.2 232.1Q638.9 231.5 637.3 231.5Q633.6 231.6 631.9 234.1Q631 235.1 630.8 236.6Q630.4 238.2 630.4 241.8Q630.4 245.4 630.8 247Q631 248.6 631.9 249.6Q632.8 250.8 634.1 251.5Q635.5 252.2 637.3 252.2Q640.5 252.2 642.5 249.9ZM638.5 235.6Q640 235.6 640.8 236.1Q641.7 236.7 642 237.6Q642.4 238.5 642.5 239.6Q642.5 240.7 642.5 241.8Q642.5 242.9 642.5 244Q642.4 245.2 642 246.1Q641.7 247 640.8 247.6Q640 248.2 638.5 248.2Q637.1 248.2 636.3 247.6Q635.5 247 635.1 246.2Q634.7 245.2 634.6 244.1Q634.5 243 634.5 241.8Q634.5 240.6 634.6 239.5Q634.7 238.4 635.1 237.5Q635.5 236.6 636.3 236Q637.1 235.6 638.5 235.6ZM666.9 243.4V240Q666.9 236 664.4 233.8Q662 231.5 658.5 231.5Q657.1 231.5 655.6 232Q654.1 232.5 652.9 233.7Q651.7 234.9 650.9 236.9Q650.2 238.9 650.2 241.9Q650.2 245 651.1 247Q651.9 249 653.2 250.2Q653.8 250.7 654.6 251.1Q655.3 251.5 656.1 251.8Q657.6 252.2 659.2 252.2Q663.4 252.3 666.5 249L663.5 246.4Q661.6 248.4 659.1 248.4Q657 248.4 655.7 247.1Q654.3 245.8 654.3 243.4ZM654.3 240Q654.4 237.7 655.5 236.5Q656.7 235.3 658.5 235.3Q660.4 235.3 661.6 236.5Q662.7 237.7 662.8 240ZM671.2 247.1Q671.2 249.8 672.7 250.9Q674.1 252 676.4 252H678.2V248.2H676.8Q675.3 248.2 675.3 246.8V223.5H671.2ZM691.7 252H695.8V234.8H699.9V231.7H695.8V229.1Q695.7 227.3 697.6 227.4H699.9V223.5H697.3Q694.9 223.5 693.3 224.8Q691.7 226.2 691.7 229.1V231.7H689.7V234.8H691.7ZM702.2 247.1Q702.2 249.8 703.7 250.9Q705.2 252 707.4 252H709.2V248.2H707.8Q706.3 248.2 706.3 246.8V223.5H702.2ZM723.2 252H727.2V238.2Q727.2 234.4 724.9 232.9Q722.6 231.4 718.8 231.5Q714.3 231.4 711.9 234.4L715.1 236.9Q715.7 236 716.6 235.6Q717.5 235.3 719 235.3Q723.2 235.2 723.2 237.9V240H717.5Q714.3 240.1 712.6 241.8Q710.9 243.5 710.9 246Q710.9 248.7 712.8 250.4Q714.7 252.2 718.1 252.2Q720.1 252.2 721.3 251.7Q722.5 251.2 723.1 250.2H723.2ZM723.2 244.9Q723.2 247.2 722.2 247.8Q721.1 248.4 718.6 248.4Q716.6 248.4 715.7 247.6Q714.8 246.9 714.8 245.8Q714.7 243.5 718.3 243.4H723.2ZM733.1 245.8 730.3 248.6Q734.2 252.2 739.2 252.2Q742.8 252.2 745.2 250.6Q747.5 249 747.6 246Q747.6 243.5 746.3 241.8Q744.9 240.2 741.7 239.9L738.3 239.7Q736.9 239.5 736.3 239Q735.6 238.4 735.7 237.8Q735.7 236.7 736.5 236Q737.2 235.3 739.1 235.3Q740.8 235.3 742.1 235.8Q743.4 236.4 744.6 237.2L747.1 234.2Q745.6 233 743.8 232.2Q742.8 231.8 741.7 231.6Q740.6 231.5 739.1 231.5Q735.9 231.5 733.8 233Q731.6 234.6 731.6 237.7Q731.6 240.3 733.3 241.8Q734.9 243.2 737.4 243.5L741 243.8Q742.2 243.8 742.8 244.3Q743.5 244.7 743.5 245.8Q743.5 247 742.4 247.7Q741.3 248.4 739.5 248.4Q735.6 248.4 733.1 245.8ZM751.7 252H755.8V239.9Q755.8 237.8 756.9 236.7Q758.1 235.6 759.8 235.6Q761.6 235.6 762.7 236.7Q763.8 237.8 763.8 239.9V252H767.9V238.5Q767.8 235 765.8 233.2Q763.7 231.5 761.1 231.5Q757.9 231.5 755.9 233.9H755.8V223.5H751.7Z"/></svg>
